<?xml version="1.0" standalone="no"?>
<!DOCTYPE svg PUBLIC "-//W3C//DTD SVG 1.1//EN" "http://www.w3.org/Graphics/SVG/1.1/DTD/svg11.dtd" >
<!--
2013-9-30: Created.
-->
<svg>
<metadata>
Created by iconfont
</metadata>
<defs>

<font id="iconfont" horiz-adv-x="1024" >
  <font-face
    font-family="iconfont"
    font-weight="500"
    font-stretch="normal"
    units-per-em="1024"
    ascent="896"
    descent="-128"
  />
    <missing-glyph />
    
    <glyph glyph-name="iconset0158" unicode="&#58947;" d="M626.688 468.992 460.8 468.992 460.8 635.904c0 13.312-8.192 21.504-21.504 21.504-13.312 0-21.504-13.312-21.504-21.504l0-165.888L251.904 470.016c-13.312 0-21.504-8.192-21.504-21.504 0-13.312 8.192-21.504 21.504-21.504l166.912 0 0-165.888c0-13.312 8.192-21.504 21.504-21.504 13.312 0 21.504 8.192 21.504 21.504L461.824 427.008l166.912 0c13.312 0 21.504 8.192 21.504 21.504C648.192 456.704 640 468.992 626.688 468.992zM955.392-37.888 734.208 183.296c64.512 68.608 102.4 161.792 102.4 264.192C836.608 665.6 657.408 844.8 439.296 844.8S43.008 665.6 43.008 447.488s179.2-396.288 396.288-396.288c102.4 0 196.608 38.912 264.192 102.4l222.208-222.208c4.096-4.096 8.192-4.096 13.312-4.096 12.288 0 21.504 8.192 21.504 21.504C960.512-47.104 960.512-43.008 955.392-37.888zM439.296 94.208c-196.608 0-354.304 157.696-354.304 354.304C84.992 640 242.688 801.792 439.296 801.792s354.304-157.696 354.304-354.304S635.904 94.208 439.296 94.208z"  horiz-adv-x="1024" />

    
    <glyph glyph-name="shrink" unicode="&#58945;" d="M635.904 468.992L260.096 468.992c-13.312 0-21.504-8.192-21.504-21.504 0-13.312 8.192-21.504 21.504-21.504l375.808 0c13.312 0 21.504 8.192 21.504 21.504C657.408 456.704 648.192 468.992 635.904 468.992zM964.608-37.888000000000034L742.4 183.29600000000005c64.512 68.608 102.4 161.792 102.4 264.192C844.8 665.6 665.6 844.8 448.512 844.8S51.2 665.6 51.2 447.488s179.2-396.288 397.312-396.288c102.4 0 196.608 38.912 264.192 102.4l222.208-222.208c4.096-4.096 8.192-4.096 13.312-4.096 13.312 0 21.504 8.192 21.504 21.504C968.704-47.10400000000004 968.704-43.00800000000004 964.608-37.888000000000034zM448.512 94.20799999999997c-196.608 0-354.304 157.696-354.304 354.304C94.208 640 256 801.792 448.512 801.792s354.304-157.696 354.304-354.304S644.096 94.20799999999997 448.512 94.20799999999997z"  horiz-adv-x="1024" />

    
    <glyph glyph-name="add" unicode="&#58932;" d="M35.2 356.8C20 356.8 8 368.8 8 384s12 27.2 27.2 27.2h954.4c15.2 0 27.2-12 27.2-27.2s-12-27.2-27.2-27.2H35.2zM512-120c-15.2 0-27.2 12-27.2 27.2V860.8C484.8 876 496.8 888 512 888s27.2-12 27.2-27.2v-954.4c0-14.4-12-26.4-27.2-26.4z"  horiz-adv-x="1024" />

    
    <glyph glyph-name="filter" unicode="&#59079;" d="M859.02 661.476l0.808 0.756 0.749 0.813c27.047 29.356 33.876 70.34 17.823 106.957-15.942 36.366-50.416 58.957-89.968 58.957H163.604c-38.83 0-73.043-22.012-89.29-57.444-16.361-35.683-10.632-76.301 14.949-106.004l0.97-1.126 280.311-266.85 2.032-312.074c0.107-16.502 13.517-29.805 29.995-29.805l0.2 0.001c16.568 0.107 29.912 13.626 29.804 30.194l-2.198 337.564-296.478 282.241c-9.526 11.758-11.426 26.933-5.044 40.851 6.446 14.059 19.437 22.452 34.75 22.452h624.828c15.6 0 28.69-8.616 35.017-23.047 6.31-14.391 3.924-29.831-6.354-41.497l-304.13-284.832 1.302-458.63c0.047-16.54 13.469-29.916 29.998-29.915h0.087c16.568 0.047 29.962 13.517 29.915 30.085L573.04 393.64l285.98 267.836zM657.265 300.713c0-16.498 13.499-29.997 29.997-29.997h243.897c16.498 0 29.997 13.498 29.997 29.997 0 16.498-13.499 29.997-29.997 29.997H687.262c-16.498 0-29.997-13.499-29.997-29.997zM931.159 161.831H687.262c-16.498 0-29.997-13.499-29.997-29.997s13.499-29.997 29.997-29.997h243.897c16.498 0 29.997 13.499 29.997 29.997 0 16.498-13.499 29.997-29.997 29.997zM931.159-7.047H687.262c-16.498 0-29.997-13.499-29.997-29.997s13.499-29.997 29.997-29.997h243.897c16.498 0 29.997 13.499 29.997 29.997 0 16.498-13.499 29.997-29.997 29.997z"  horiz-adv-x="1024" />

    
    <glyph glyph-name="business" unicode="&#58888;" d="M1033.329778 292.113067l-483.783111 113.686755V896C824.137956 896 1046.755556 676.522667 1046.755556 405.799822c0-39.139556-4.642133-77.2096-13.425778-113.686755zM471.04 817.220267V344.632889l458.296889-109.613511C880.071111 26.851556 693.589333-128 471.04-128 210.898489-128 0 83.603911 0 344.632889 0 605.639111 210.898489 817.197511 471.04 817.197511z"  horiz-adv-x="1046" />

    
    <glyph glyph-name="product" unicode="&#58889;" d="M285.767442 312.772465L237.186977 300.651163H142.883721v71.44186a47.627907 47.627907 0 0 0 47.627907 47.627907h47.627907a47.627907 47.627907 0 0 0 47.627907-47.627907v-59.320558z m285.767442 71.298977l-142.883721-35.649489V705.488372a47.627907 47.627907 0 0 0 47.627907 47.627907h47.627907a47.627907 47.627907 0 0 0 47.627907-47.627907v-321.41693zM762.046512 586.418605h47.627907a47.627907 47.627907 0 0 0 47.627907-47.627907v-500.093024a47.627907 47.627907 0 0 0-47.627907-47.627907h-47.627907a47.627907 47.627907 0 0 0-47.627907 47.627907V538.790698a47.627907 47.627907 0 0 0 47.627907 47.627907zM1047.813953 896h47.627907a47.627907 47.627907 0 0 0 47.627907-47.627907v-809.674419a47.627907 47.627907 0 0 0-47.627907-47.627907h-47.627907a47.627907 47.627907 0 0 0-47.627906 47.627907V848.372093a47.627907 47.627907 0 0 0 47.627906 47.627907zM47.627907 229.209302h119.069767v-261.953488H47.627907a47.627907 47.627907 0 0 0-47.627907 47.627907v166.697674a47.627907 47.627907 0 0 0 47.627907 47.627907z m166.697674 0l399.669582 88.826047a23.813953 23.813953 0 0 0 28.981581-23.266233v-393.073116a23.813953 23.813953 0 0 0-28.981581-23.266233L214.325581-32.744186V229.209302z"  horiz-adv-x="1143" />

    
    <glyph glyph-name="merchants" unicode="&#58890;" d="M490.349714 337.603048C504.198095 366.372571 512 398.628571 512 432.761905a219.428571 219.428571 0 0 1-381.927619 147.456l17.310476 261.12A58.514286 58.514286 0 0 0 205.775238 896h880.64a58.514286 58.514286 0 0 0 58.368-54.637714l23.088762-347.794286a135.216762 135.216762 0 0 0 2.194286-33.182476L1170.285714 457.142857h-0.438857c-4.559238-56.734476-44.30019-103.399619-97.084952-117.51619V-20.72381a58.514286 58.514286 0 0 0-58.514286-58.514285H641.974857c7.192381 4.36419 12.702476 8.996571 16.310857 13.921524 0 20.163048-1.536 39.936-4.510476 59.221333H999.619048V341.406476A132.559238 132.559238 0 0 0 908.629333 457.142857h-0.877714c-5.461333-68.266667-61.854476-121.904762-130.608762-121.904762-68.754286 0-125.147429 53.638095-130.608762 121.904762h-0.877714c-5.461333-68.266667-61.854476-121.904762-130.608762-121.904762-8.43581 0-16.700952 0.804571-24.697905 2.364953zM585.142857-75.751619c-48.761905-69.656381-536.380952-69.656381-585.142857 0C0 97.353143 130.998857 237.714286 292.571429 237.714286s292.571429-140.336762 292.571428-313.465905zM292.571429 286.47619a146.285714 146.285714 0 1 0 0 292.571429 146.285714 146.285714 0 0 0 0-292.571429z"  horiz-adv-x="1170" />

    
    <glyph glyph-name="admin" unicode="&#58891;" d="M737.1264-101.8112A244.3008 244.3008 0 0 1 825.5232-25.6h44.1344c0.512-8.448 0.7424-16.9984 0.7424-25.6-16.3328-21.76-65.7152-38.656-133.2736-50.6112z m-171.3152-18.3808C331.9552-133.248 44.288-110.2592 0-51.2c0 240.3584 194.8416 435.2 435.2 435.2 54.5792 0 106.8288-10.0608 154.9824-28.416-116.736-17.8176-206.1824-118.656-206.1824-240.384 0-113.1008 77.2096-208.1792 181.8112-235.392z m139.0848 465.92A306.2272 306.2272 0 0 0 921.6 435.2c169.6512 0 307.2-137.5488 307.2-307.2-13.3632-17.8176-58.0608-30.976-117.76-39.4752V128a76.8 76.8 0 0 1-74.24 76.7488V204.8a76.8 76.8 0 0 1-76.8 76.8h-76.8c-22.8864 0-43.4176-9.984-57.4976-25.856a243.7888 243.7888 0 0 1-120.832 89.984zM921.6 486.4a153.6 153.6 0 1 0 0 307.2 153.6 153.6 0 0 0 0-307.2zM665.6 665.6A230.4 230.4 0 1 0 204.8 665.6a230.4 230.4 0 0 0 460.8 0z m216.832-537.216v41.7024a38.4 38.4 0 0 0 76.8 0v-41.728h36.608a38.4 38.4 0 1 0 0-76.8h-214.8352a166.4 166.4 0 1 0 12.0832 76.8h89.344z m-318.592 50.176a89.6 89.6 0 1 1 126.72-126.72 89.6 89.6 0 0 1-126.72 126.72z"  horiz-adv-x="1228" />

    
    <glyph glyph-name="order" unicode="&#58892;" d="M246.485333 768l59.584 28.8 178.133334 86.101333a69.333333 69.333333 0 0 0 55.594666 0L777.514667 768H832a42.666667 42.666667 0 0 0 42.666667-42.666667v-810.666666a42.666667 42.666667 0 0 0-42.666667-42.666667H192a42.666667 42.666667 0 0 0-42.666667 42.666667V725.333333a42.666667 42.666667 0 0 0 42.666667 42.666667h54.485333zM309.333333 618.666667a32 32 0 0 1 0-64h405.333334a32 32 0 0 1 0 64h-405.333334z m0-192a32 32 0 0 1 0-64h405.333334a32 32 0 0 1 0 64h-405.333334z m0-192a32 32 0 0 1 0-64h277.333334a32 32 0 0 1 0 64h-277.333334z m0-192a32 32 0 0 1 0-64h213.333334a32 32 0 0 1 0 64h-213.333334zM704-21.333333a85.333333 85.333333 0 1 1 0 170.666666 85.333333 85.333333 0 0 1 0-170.666666zM510.954667 824.768L384 768l125.866667-56.277333a6.421333 6.421333 0 0 1 3.178666-0.490667L640 768l-126.165333 56.384a6.293333 6.293333 0 0 1-2.88 0.384z"  horiz-adv-x="1024" />

    
    <glyph glyph-name="level-3" unicode="&#58895;" d="M903.71606 410.468329a273.485717 273.485717 0 0 1-80.895689 53.484102 236.700628 236.700628 0 0 1 86.803359 73.964023 220.316691 220.316691 0 0 1 41.589994 128.787197C951.213724 793.206549 843.063986 896 710.180805 896c-50.333345 0-98.46116-14.572252-139.342234-42.220145A231.265572 231.265572 0 0 1 489.942882 759.887293a245.916593 245.916593 0 0 1-176.442398 73.255103C180.459765 833.063627 72.467565 730.191407 72.467565 603.767278c0-46.158592 14.335945-90.584267 41.589994-128.708428 22.291607-31.192495 51.987492-56.477321 86.724589-74.042792-29.932193-12.918104-57.107473-30.798651-80.895688-53.562871A252.848258 252.848258 0 0 1 39.384615 163.37020199999995v-187.785123C39.384615-81.443625 88.221351-127.99606200000005 148.164505-127.99606200000005h330.829497a109.48881 109.48881 0 0 1 100.036538 62.936374h296.80132c59.864385 0 108.779889 46.394898 108.779889 103.502371V226.30657599999995a253.635948 253.635948 0 0 1-80.895689 184.161753zM600.061844 771.5450940000001a158.325545 158.325545 0 0 0 110.118961 43.32291c41.747532 0 80.81692-15.281172 110.118961-43.32291 29.538348-27.962969 45.685978-65.141903 45.685978-104.762674 0-39.69954-16.305168-76.878474-45.685978-104.762674a158.325545 158.325545 0 0 0-110.118961-43.480448 158.325545 158.325545 0 0 0-110.118961 43.401679 143.201911 143.201911 0 0 0 0 209.525348zM157.538007 603.767278c0 39.69954 16.14763 76.878474 45.685978 104.762674a158.325545 158.325545 0 0 0 110.118961 43.480448c41.747532 0 80.738151-15.359941 110.118961-43.401679 29.459579-28.041738 45.685978-65.220672 45.685979-104.762674 0-39.69954-16.226399-76.878474-45.685979-104.762674a158.325545 158.325545 0 0 0-110.118961-43.480448 159.034465 159.034465 0 0 0-110.276499 43.401679A143.753293 143.753293 0 0 0 157.538007 603.767278z m344.614059-628.103431a21.267611 21.267611 0 0 0-6.931665-15.753785 23.945754 23.945754 0 0 0-16.541475-6.61659H147.928198a23.000527 23.000527 0 0 0-23.473141 22.370375V163.37020199999995c0 47.812739 19.692232 92.868566 55.453326 126.896743a192.353722 192.353722 0 0 0 133.434563 52.775182 192.353722 192.353722 0 0 0 134.931174-54.35056l0.315075-0.472614c34.50079-33.713101 53.562871-78.060007 53.562871-124.92752v-187.627586z m-21.031303 393.608333a273.643255 273.643255 0 0 1-55.13825 31.822647 235.755401 235.755401 0 0 1 107.598355 109.567578c18.431929-18.825774 40.014615-34.658328 63.802832-46.631205a274.115869 274.115869 0 0 1-116.262937-94.75902z m417.947931-330.829497a23.000527 23.000527 0 0 0-23.473141-22.370376H587.458815V163.44897100000003c0 51.672417-15.753786 101.296841-45.685978 143.910831 9.058427 17.014088 20.794997 32.374029 35.052173 45.843516a192.196184 192.196184 0 0 0 133.355795 52.853951c50.254576 0 97.594702-18.668236 133.355794-52.775182a174.07933 174.07933 0 0 0 55.532095-126.817973v-187.942662z"  horiz-adv-x="1024" />

    
    <glyph glyph-name="level-2" unicode="&#58897;" d="M85.333333-42.66666699999996V469.333333a85.333333 85.333333 0 0 0 85.333334 85.333334h170.666666V810.666667a85.333333 85.333333 0 0 0 85.333334 85.333333h341.333333a85.333333 85.333333 0 0 0 85.333333-85.333333v-85.333334h170.666667a85.333333 85.333333 0 0 0 85.333333-85.333333v-682.666667h85.333334v-85.333333H0v85.333333h85.333333z m85.333334 0h170.666666V469.333333H170.666667v-512z m853.333333 0V640h-170.666667v-682.666667h170.666667z m-256 0V810.666667H426.666667v-853.333334h341.333333z"  horiz-adv-x="1194" />

    
    <glyph glyph-name="level-1" unicode="&#58899;" d="M546.143573 554.666667a136.533333 136.533333 0 1 1 0 273.066666 136.533333 136.533333 0 0 1 0-273.066666z m34.133334-170.666667H887.476907A102.4 102.4 0 0 0 989.876907 281.6v-140.834133a136.533333 136.533333 0 1 0-68.266667 0V281.6a34.133333 34.133333 0 0 1-34.133333 34.133333H580.276907v-174.967466a136.533333 136.533333 0 1 0-68.266667 0V315.733333H204.81024a34.133333 34.133333 0 0 1-34.133333-34.133333v-140.834133a136.533333 136.533333 0 1 0-68.266667 0V281.6A102.4 102.4 0 0 0 204.81024 384h307.2V489.198933a204.8 204.8 0 1 0 68.266667 0V384zM136.543573-59.733333000000016a68.266667 68.266667 0 1 1 0 136.533333 68.266667 68.266667 0 0 1 0-136.533333z m409.6 0a68.266667 68.266667 0 1 1 0 136.533333 68.266667 68.266667 0 0 1 0-136.533333z m409.6 0a68.266667 68.266667 0 1 1 0 136.533333 68.266667 68.266667 0 0 1 0-136.533333z"  horiz-adv-x="1092" />

    
    <glyph glyph-name="checked" unicode="&#58900;" d="M403.84 221.44L284.416 354.176a30.016 30.016 0 0 1-44.608-40.128l141.376-156.928a30.016 30.016 0 0 1 30.72-8.768 29.888 29.888 0 0 1 14.912 9.024l357.76 397.376a30.016 30.016 0 1 1-44.544 40.128L403.84 221.504zM0 768.448C0 838.848 57.28 896 127.616 896h768.768C966.848 896 1024 838.72 1024 768.384v-768.768A127.68 127.68 0 0 0 896.384-128H127.616A127.68 127.68 0 0 0 0-0.384V768.384z"  horiz-adv-x="1024" />

    
    <glyph glyph-name="checkin" unicode="&#58901;" d="M0 768.384C0 838.848 57.28 896 127.616 896h768.768C966.848 896 1024 838.72 1024 768.384v-768.768A127.68 127.68 0 0 0 896.384-128H127.616A127.68 127.68 0 0 0 0-0.384V768.384zM224 384a32 32 0 0 1 0-64h576a32 32 0 1 1 0 64h-576z"  horiz-adv-x="1024" />

    
    <glyph glyph-name="unckeck" unicode="&#58902;" d="M64 768.384v-768.768c0-35.072 28.544-63.616 63.616-63.616h768.768a63.68 63.68 0 0 1 63.616 63.616V768.384A63.68 63.68 0 0 1 896.384 832H127.616A63.68 63.68 0 0 1 64 768.384z m-64 0C0 838.848 57.28 896 127.616 896h768.768C966.848 896 1024 838.72 1024 768.384v-768.768A127.68 127.68 0 0 0 896.384-128H127.616A127.68 127.68 0 0 0 0-0.384V768.384z"  horiz-adv-x="1024" />

    
    <glyph glyph-name="lock" unicode="&#58881;" d="M847.587556 657.009778a392.931556 392.931556 0 0 1-78.791112 123.676444A365.340444 365.340444 0 0 1 652.231111 864.597333a345.998222 345.998222 0 0 1-285.639111-0.113777 364.544 364.544 0 0 1-116.622222-83.797334A391.338667 391.338667 0 0 1 171.235556 657.066667 403.911111 403.911111 0 0 1 142.336 505.742222v-512.967111c0-41.870222 32.142222-75.946667 71.793778-75.946667h590.336c39.651556 0 71.850667 34.076444 71.623111 75.946667V445.553778l0.227555 20.821333v39.424a401.180444 401.180444 0 0 1-28.728888 151.210667zM395.377778 795.818667h0.227555l1.422223 0.568889a267.491556 267.491556 0 0 0 112.355555 24.462222c38.855111 0 76.8-8.305778 112.412445-24.234667 34.588444-15.701333 65.991111-38.286222 93.184-66.958222A318.577778 318.577778 0 0 0 778.808889 629.191111c15.701333-39.025778 23.608889-80.497778 23.608889-123.448889v-32.312889H216.348444v32.426667c0 42.496 7.907556 83.968 23.608889 123.335111a317.155556 317.155556 0 0 0 63.772445 100.295111A290.588444 290.588444 0 0 0 395.377778 795.875556z m407.324444-396.629334v-406.243555a5.12 5.12 0 0 0-0.170666-1.536h-585.955556a5.12 5.12 0 0 0-0.227556 1.536V399.189333H802.702222z m-327.452444-167.537777v-97.678223c0-19.057778 15.36-34.531556 34.304-34.531555a34.474667 34.474667 0 0 1 34.360889 34.531555v97.848889c18.204444 11.832889 29.127111 31.687111 29.127111 53.703111 0 35.328-28.444444 64.056889-63.544889 64.056889s-63.601778-28.728889-63.601778-64.056889c0.113778-21.731556 11.264-42.211556 29.354667-53.873777z"  horiz-adv-x="1024" />

    
    <glyph glyph-name="edit" unicode="&#58883;" d="M982.738699-45.702018H41.175551a41.084996 41.084996 0 1 1 0-82.297982h941.563148a41.084996 41.084996 0 1 1 0 82.297982zM265.159172 89.136122l269.100322 113.91167a37.821234 37.821234 0 0 1 11.647149 7.807429l453.854811 453.918807a82.553963 82.553963 0 0 1 0.191986 116.535479L909.400062 871.92688a82.553963 82.553963 0 0 1-116.599474-0.191986L338.945777 417.816087a36.541328 36.541328 0 0 1-7.743434-11.647148l-114.039661-269.036327c-6.399532-15.102896-1.91986-30.269787 7.743434-40.125066a36.093361 36.093361 0 0 1 40.253056-7.871424z m585.813163 724.427026l0.255981 0.191986 90.489383-90.489383-0.255981-0.191986-70.84282-70.906815-90.489383 90.553379 70.84282 70.842819zM403.389064 365.915882l318.568705 318.6327 90.489383-90.553378-318.568705-318.568705-156.980521-66.555133 66.491138 157.044516z"  horiz-adv-x="1024" />

    
    <glyph glyph-name="unlock" unicode="&#58893;" d="M199.499896 454.595765v33.91247c0 44.574118 8.432941 87.943529 25.238589 129.144471a331.233882 331.233882 0 0 0 68.065882 104.929882 312.199529 312.199529 0 0 0 97.761882 69.391059h0.240942l1.505882 0.602353a290.093176 290.093176 0 0 0 119.868235 25.539765c41.502118 0 81.92-8.673882 119.988706-25.298824a318.343529 318.343529 0 0 0 99.388235-70.113882c20.239059-21.082353 46.682353-67.403294 61.379765-94.870588a41.381647 41.381647 0 0 1 36.623059-21.805177h15.841882c20.901647 0 35.478588 20.901647 27.587765 40.176941l-0.060235 0.361412a410.322824 410.322824 0 0 1-84.028236 129.445647A389.722353 389.722353 0 0 1 664.516367 863.774118 375.265882 375.265882 0 0 1 512.121073 896a374.061176 374.061176 0 0 1-152.395294-32.286118 388.818824 388.818824 0 0 1-124.385883-87.702588 408.636235 408.636235 0 0 1-84.028235-129.505882A415.683765 415.683765 0 0 1 120.471191 488.327529v-536.816941C120.471191-92.400941 154.805308-128 197.090485-128h629.820235c42.285176 0 76.619294 35.599059 76.378353 79.510588L903.530014 381.349647a73.487059 73.487059 0 0 1-73.968941 73.065412H199.499896v0.12047z m625.664-502.964706c0-0.722824-0.120471-1.325176-0.240941-1.626353H199.740838a5.240471 5.240471 0 0 0-0.240942 1.566118V376.771765H825.224132v-425.200941z m-349.364705 249.735529v-102.159059c0-19.998118 16.384-36.201412 36.623058-36.201411 20.239059 0 36.623059 16.263529 36.623059 36.141176v102.460235c19.395765 12.348235 31.081412 33.129412 31.081412 56.19953a67.463529 67.463529 0 0 1-67.824941 66.981647 67.463529 67.463529 0 0 1-67.885177-66.981647c0.120471-22.768941 12.047059-44.212706 31.322353-56.440471z"  horiz-adv-x="1024" />

    
    <glyph glyph-name="icon-poi" unicode="&#58887;" d="M511.19413-128C732.062288 211.778053 842.496367 442.695713 842.496367 564.697762c0 182.961661-148.340577 331.302238-331.302237 331.302238S179.891892 747.659423 179.891892 564.697762c0-121.974441 110.434079-352.8921 331.302238-692.697762z"  horiz-adv-x="1024" />

    
    <glyph glyph-name="icon-search" unicode="&#58894;" d="M1011.718623-57.369927L776.532431 177.475045a438.638884 438.638884 0 1 1-58.178087-58.178086l235.100888-234.930277a41.202369 41.202369 0 0 1 58.263391 0 41.458284 41.458284 0 0 1-0.17061 58.263391zM577.344995 128.851132a352.736636 352.736636 0 0 0-138.706111-27.980077 355.63701 355.63701 0 0 0-251.9913 104.413457 355.63701 355.63701 0 0 0-76.518685 390.697411c17.914073 42.39664 43.676217 80.528025 76.43338 113.370493a355.63701 355.63701 0 0 0 390.697411 76.43338c42.481946-17.914073 80.61333-43.676217 113.455798-76.43338a355.63701 355.63701 0 0 0 76.348075-390.697411c-17.914073-42.481946-43.590912-80.61333-76.43338-113.455798-32.757163-32.757163-70.803243-58.434001-113.285188-76.348075z"  horiz-adv-x="1025" />

    
    <glyph glyph-name="caretup" unicode="&#58896;" d="M354.37924972 60.972713659999954L693.3922453 359.15174743a32.88252139 32.88252139 0 0 1 0 46.88037014L354.37924972 705.61921886C335.32892248 723.6756162199999 305.26253683 709.34645678 305.26253683 682.1790337699999v-597.60048044c0-27.25025067 30.06638566-41.66223705 49.11671289-23.52301274z"  horiz-adv-x="1024" />

    
    <glyph glyph-name="zhexian" unicode="&#58898;" d="M779.95 546.176L581.503 315.79c-1.012-1.125-2.306-1.912-3.824-1.912h-0.225a5.712 5.712 0 0 0-3.711 1.405L353.817 522.951 154.472 314.215l49.372-48.754 149.692 154.81c1.012 1.18 2.418 1.799 3.824 1.799 1.293 0 2.643-0.506 3.655-1.519L581.84 210.915l251.417 289.318-53.309 45.943z"  horiz-adv-x="1024" />

    
    <glyph glyph-name="icon-success" unicode="&#58903;" d="M512 896a512 512 0 1 1 0-1024A512 512 0 0 1 512 896z m356.059429-343.771429L439.515429 173.348571a35.474286 35.474286 0 0 0-46.738286 0L229.083429 315.538286a28.16 28.16 0 0 0 0 42.422857 35.474286 35.474286 0 0 0 46.811428 0L416.182857 236.982857l405.065143 357.668572a35.474286 35.474286 0 0 0 46.738286 0c12.873143-11.702857 12.873143-30.72 0-42.422858z"  horiz-adv-x="1024" />

    
    <glyph glyph-name="icon-fail" unicode="&#58904;" d="M512 896a512 512 0 0 1-512-512 512 512 0 0 1 512-512 512 512 0 0 1 512 512 512 512 0 0 1-512 512z m241.005714-703.268571a32.182857 32.182857 0 0 0 0.512-45.348572 32.182857 32.182857 0 0 0-45.348571-0.512L512 339.236571 315.830857 147.017143a31.963429 31.963429 0 1 0-44.836571 45.787428L466.285714 384l-195.291428 191.268571a32.182857 32.182857 0 0 0-0.512 45.348572 32.182857 32.182857 0 0 0 45.348571 0.512L512 428.763429 708.169143 620.982857a31.963429 31.963429 0 1 0 44.836571-45.787428L557.714286 384l195.291428-191.268571z"  horiz-adv-x="1024" />

    
    <glyph glyph-name="assign" unicode="&#58905;" d="M928.5632 511.658667c0.341333 0 0.750933 0 1.160533 0.136533l1.365334 0.136533 0.955733 0.136534 1.4336 0.273066 0.8192 0.136534a21.162667 21.162667 0 0 1 1.365333 0.341333l0.8192 0.136533 1.4336 0.4096 0.8192 0.273067 1.297067 0.4096a2.389333 2.389333 0 0 0 0.887467 0.273067l1.160533 0.4096 1.092267 0.341333 1.024 0.4096 1.160533 0.546133a6.3488 6.3488 0 0 0 0.955733 0.4096l1.160534 0.682667 0.750933 0.341333 1.365333 0.8192 0.6144 0.4096 1.297067 0.750934 0.682667 0.4096a7.168 7.168 0 0 1 1.160533 0.955733l0.682667 0.477867 1.024 0.955733 0.887466 0.8192a38.775467 38.775467 0 0 1 4.7104 4.778667c0.273067 0.2048 0.477867 0.682667 0.750934 0.887466 0.273067 0.4096 0.546133 0.8192 0.955733 1.092267l0.477867 0.682667 0.955733 1.160533 0.341333 0.682667 0.8192 1.297066 0.4096 0.682667 0.750934 1.297067 0.4096 0.750933 0.682666 1.2288 0.341334 0.8192 0.546133 1.160533 0.341333 1.024 0.4096 1.092267 0.4096 1.160533a2.4576 2.4576 0 0 1 0.273067 0.955734l0.4096 1.365333 0.2048 0.750933 0.4096 1.4336 0.136533 0.8192c0.136533 0.546133 0.273067 1.024 0.273067 1.4336l0.136533 0.8192 0.273067 1.4336 0.068267 0.955734 0.136533 1.4336c0 0.4096 0 0.8192 0.136533 1.2288 0 0.341333 0 0.750933 0.136534 1.024a29.013333 29.013333 0 0 1 0 4.778666c0 0.4096 0 0.750933-0.136534 1.024 0 0.4096 0 0.8192-0.136533 1.2288l-0.136533 1.4336-0.068267 0.955734-0.273067 1.4336-0.136533 0.8192a6.894933 6.894933 0 0 0-0.273067 1.4336l-0.136533 0.8192-0.4096 1.365333-0.2048 0.887467-0.4096 1.297066a2.4576 2.4576 0 0 0-0.273067 0.955734l-0.4096 1.160533-0.4096 1.024-0.341333 1.092267-0.546133 1.160533-0.4096 0.8192c-0.2048 0.4096-0.341333 0.8192-0.682667 1.160533l-0.341333 0.8192-0.750934 1.365334-0.4096 0.682666-0.8192 1.297067-0.341333 0.682667-0.955733 1.160533-0.477867 0.682667c-0.273067 0.341333-0.546133 0.750933-0.955733 1.024-0.273067 0.273067-0.477867 0.682667-0.750934 0.887466l-0.8192 0.8192c-0.477867 0.546133-1.024 1.2288-1.570133 1.706667l-231.6288 234.9056a46.421333 46.421333 0 0 1-66.423467 0 47.991467 47.991467 0 0 1 0-67.3792L811.690667 606.549333h-709.973334a47.3088 47.3088 0 0 1-47.035733-47.650133c0-26.350933 21.026133-47.650133 46.967467-47.650133h825.7536c0.546133 0.273067 0.955733 0.273067 1.2288 0.4096zM98.304 253.883733c-0.341333 0-0.750933 0-1.160533-0.136533l-1.365334-0.136533-0.955733-0.136534c-0.546133-0.136533-1.092267-0.136533-1.4336-0.273066l-0.8192-0.136534a21.162667 21.162667 0 0 1-1.365333-0.4096l-0.8192-0.068266-1.4336-0.4096-0.8192-0.273067-1.297067-0.4096a2.389333 2.389333 0 0 0-0.887467-0.273067l-1.160533-0.4096-1.092267-0.341333-1.024-0.4096-1.160533-0.546133-0.955733-0.4096-1.160534-0.682667-0.750933-0.341333-1.365333-0.8192-0.6144-0.4096-1.365334-0.750934-0.6144-0.4096-1.160533-0.955733-0.682667-0.546133c-0.341333-0.2048-0.682667-0.477867-1.024-0.887467l-0.887466-0.8192a38.775467 38.775467 0 0 1-4.096-3.959467l-0.6144-0.8192c-0.273067-0.2048-0.546133-0.682667-0.750934-0.887466-0.273067-0.4096-0.546133-0.8192-0.955733-1.092267l-0.477867-0.682667-0.955733-1.160533-0.341333-0.682667-0.8192-1.297066-0.4096-0.682667-0.750934-1.297067-0.4096-0.8192-0.682666-1.160533-0.341334-0.8192-0.546133-1.160533-0.4096-1.092267-0.341333-1.024-0.4096-1.2288a2.4576 2.4576 0 0 1-0.273067-0.887467l-0.4096-1.365333c-0.136533-0.2048-0.136533-0.477867-0.2048-0.750933l-0.4096-1.4336-0.136533-0.8192-0.273067-1.4336-0.136533-0.8192c-0.136533-0.546133-0.136533-1.092267-0.273067-1.4336l-0.136533-0.955734-0.068267-1.4336c0-0.4096 0-0.8192-0.136533-1.2288 0-0.4096 0-0.750933-0.136534-1.024a29.013333 29.013333 0 0 1 0.273067-7.031466l0.068267-1.4336 0.136533-0.955734 0.273067-1.4336 0.136533-0.8192a6.894933 6.894933 0 0 0 0.273067-1.4336l0.136533-0.8192 0.4096-1.4336 0.2048-0.8192 0.4096-1.365333c0.136533-0.2048 0.273067-0.6144 0.273067-0.887467l0.4096-1.160533 0.341333-1.092267 0.4096-1.024 0.546133-1.2288 0.4096-0.750933c0.2048-0.4096 0.341333-0.8192 0.682667-1.2288l0.341333-0.750933 0.750934-1.365334 0.4096-0.682666 0.8192-1.297067 0.341333-0.682667a7.236267 7.236267 0 0 1 0.955733-1.160533l0.477867-0.682667a3.549867 3.549867 0 0 1 0.955733-1.024l0.750934-0.955733 0.8192-0.750933c0.477867-0.546133 1.024-1.2288 1.570133-1.706667l231.424-235.178667a46.421333 46.421333 0 0 1 66.491733 0 47.991467 47.991467 0 0 1 0 67.3792L215.04 158.72h709.973333c26.0096 0 47.035733 21.2992 47.035734 47.650133a47.3088 47.3088 0 0 1-46.967467 47.650134H99.396267c-0.4096 0-0.8192 0-1.092267-0.136534z"  horiz-adv-x="1024" />

    
    <glyph glyph-name="addfile" unicode="&#58906;" d="M164.110874 128.023999H320.074V284.051123a35.966876 35.966876 0 1 0 71.99775 0V128.023999h148.027374a35.966876 35.966876 0 1 0 0-71.99775H392.007752v-148.027374a35.966876 35.966876 0 1 0-71.99775 0v148.027374H164.046876a35.966876 35.966876 0 1 0 0 71.99775zM149.007346 594.185432L426.95066 874.688666a77.43758 77.43758 0 0 0 19.1994 13.823568c0.895972 0.511984 1.91994 0.895972 2.815912 1.27996C458.053688 893.824068 467.973378 896 478.14906 896h345.973189C863.865007 896 896.056001 863.809006 896.056001 824.00225v-879.972501c0-39.806756-32.190994-71.99775-71.99775-71.99775H612.032876a35.966876 35.966876 0 1 0 0 71.99775h212.025375V824.00225H512.068v-239.9925C512.068 544.202994 479.877006 512.012 440.07025 512.012h-239.9925v-156.027125a35.966876 35.966876 0 1 0-71.99775 0v187.514141c0 19.007406 7.487766 37.182838 20.927346 50.686416z m291.062904-10.175682v201.5937l-199.801756-201.5937h199.801756z"  horiz-adv-x="1024" />

    
    <glyph glyph-name="unbind" unicode="&#58912;" d="M887.466667 213.33333300000004V281.6h68.266666a68.266667 68.266667 0 0 1 68.266667 68.266667V759.466667a68.266667 68.266667 0 0 1-68.266667 68.266666H409.6a68.266667 68.266667 0 0 1-68.266667-68.266666v-409.6a68.266667 68.266667 0 0 1 68.266667-68.266667h273.066667v-68.266667H409.6a136.533333 136.533333 0 0 0-136.533333 136.533334V759.466667a136.533333 136.533333 0 0 0 136.533333 136.533333h546.133333a136.533333 136.533333 0 0 0 136.533334-136.533333v-409.6a136.533333 136.533333 0 0 0-136.533334-136.533334h-68.266666zM409.6 554.666667h273.066667a136.533333 136.533333 0 0 0 136.533333-136.533334v-409.6a136.533333 136.533333 0 0 0-136.533333-136.533333H136.533333a136.533333 136.533333 0 0 0-136.533333 136.533333V418.133333a136.533333 136.533333 0 0 0 136.533333 136.533334h68.266667v-68.266667H136.533333a68.266667 68.266667 0 0 1-68.266666-68.266667v-409.6a68.266667 68.266667 0 0 1 68.266666-68.266666h546.133334a68.266667 68.266667 0 0 1 68.266666 68.266666V418.133333a68.266667 68.266667 0 0 1-68.266666 68.266667H409.6V554.666667z"  horiz-adv-x="1092" />

    
    <glyph glyph-name="waimai" unicode="&#58913;" d="M793.316639 112.94440099999997a180.765373 180.765373 0 0 0 231.182107 110.049429V414.721982H783.076682L722.17905 293.649539H421.96758V715.294862H301.196313l-144.564111-483.506715A180.765373 180.765373 0 0 0 351.191401 112.94440099999997h442.125238zM783.076682 52.70935499999996H361.431359a180.705138 180.705138 0 1 0-275.213926 154.081248l157.213471 525.791717A60.235046 60.235046 0 0 0 301.196313 775.529908h120.771267a60.235046 60.235046 0 0 0 60.235046-60.235046v-361.410277h202.871636l44.272758 87.943167A60.235046 60.235046 0 0 0 783.076682 474.957028h241.361829a60.235046 60.235046 0 0 0 60.235046-60.235046v-227.688474A180.705138 180.705138 0 1 0 783.076682 52.70935499999996zM271.07879 896h180.705138a30.117523 30.117523 0 0 0 0-60.235046h-180.705138a30.117523 30.117523 0 0 0 0 60.235046zM180.726221-67.76073699999995a120.470092 120.470092 0 1 1 0 240.940184 120.470092 120.470092 0 0 1 0-240.940184z m783.055599 0a120.470092 120.470092 0 1 1 0 240.940184 120.470092 120.470092 0 0 1 0-240.940184zM783.076682 715.294862v-120.470092h240.940184V715.294862h-240.940184z m0 60.235046h240.940184a60.235046 60.235046 0 0 0 60.235046-60.235046v-120.470092a60.235046 60.235046 0 0 0-60.235046-60.235047h-240.940184a60.235046 60.235046 0 0 0-60.235047 60.235047V715.294862a60.235046 60.235046 0 0 0 60.235047 60.235046z"  horiz-adv-x="1144" />

    
    <glyph glyph-name="saas" unicode="&#58914;" d="M928 364.544c-5.76-0.192-11.52-0.32-17.408-0.32-67.136 0-124.416 24-169.792 69.376-45.056-45.44-102.4-69.376-169.792-69.376-67.072 0-124.032 23.744-168.832 68.672-44.8-44.928-101.888-68.672-169.088-68.672-3.008 0-6.08 0-9.088 0.128v-352.128c0-14.528 10.624-25.6 22.848-25.6H448V243.20000000000005a64 64 0 0 0 64 64h128a64 64 0 0 0 64-64v-256.64h201.152c12.224 0 22.848 11.136 22.848 25.664V364.544z m64 7.424v-359.68c0-49.216-38.528-89.728-86.848-89.728H246.848c-48.32 0-86.848 40.512-86.848 89.664V370.304C59.52 388.352 0 446.656 0 543.616v12.032L133.056 896h877.76l131.84-340.48v-11.904c0-94.08-55.872-151.808-150.656-171.648zM512 243.20000000000005v-256h128v256H512zM176.768 832L64 543.616c0-76.928 56.32-115.392 169.088-115.392 75.2 0 131.584 38.464 169.152 115.392C439.808 466.688 496 428.16 571.008 428.16c74.88 0 131.392 38.464 169.472 115.392 38.912-76.928 95.616-115.392 170.112-115.392 112 0 168.064 38.464 168.064 115.392L967.04 832H176.768z"  horiz-adv-x="1152" />

    
    <glyph glyph-name="delete" unicode="&#58915;" d="M133.76-115.584a72.384 72.384 0 0 0-6.4 6.4c2.368-2.304 4.288-4.608 6.4-6.4z m-11.008 6.208zM1012.032 737.792a43.008 43.008 0 0 1-29.952 12.096H771.84V815.552C771.84 859.904 735.808 896 691.456 896H332.48C288.192 896 252.16 859.904 252.16 815.552v-65.664H40.768a40.896 40.896 0 0 1 0-81.728H76.8v-711.296c0-44.416 35.968-80.448 80.32-80.448h721.152c44.352 0 80.32 36.032 80.32 80.448V668.16h23.488c22.4 0 41.92 18.24 41.92 40.832a40.256 40.256 0 0 1-11.968 28.8z m-679.68 77.44h358.784v-66.048H332.352V815.36z m545.856-858.24H157.12V668.16H878.08v-711.168zM511.488 531.2a40.96 40.96 0 0 1-41.088-41.088V108.8a40.96 40.96 0 1 1 82.048 0V490.112a41.024 41.024 0 0 1-40.96 41.088z m-222.208 0a40.96 40.96 0 0 1-40.96-41.088V108.8a40.96 40.96 0 1 1 81.92 0V490.112a41.024 41.024 0 0 1-40.96 41.088z m442.048 0a40.96 40.96 0 0 1-40.96-41.088V108.8a40.96 40.96 0 1 1 81.92 0V490.112a41.024 41.024 0 0 1-40.96 41.088z"  horiz-adv-x="1024" />

    
    <glyph glyph-name="wrong-pwd" unicode="&#58916;" d="M202.24 545.28h-10.752a350.72 350.72 0 1 0 701.354667 0h-10.752c83.456 0 151.04-62.890667 151.04-140.458667v-47.957333a228.608 228.608 0 0 1-75.52 4.949333v43.008c0 38.741333-33.792 70.229333-75.52 70.229334H202.24c-41.813333 0-75.52-31.488-75.52-70.229334v-392.277333c0-38.826667 33.792-70.314667 75.52-70.314667h656.554667a226.901333 226.901333 0 0 1 123.136-35.157333 157.013333 157.013333 0 0 0-99.84-35.072H202.24C118.784-128 51.2-65.10933299999999 51.2 12.543999999999983V404.821333c0 77.653333 67.584 140.458667 151.04 140.458667z m59.392 0H822.613333a280.576 280.576 0 0 1-561.066666 0z m715.605333-580.266667a165.034667 165.034667 0 1 0 0 330.069334 165.034667 165.034667 0 0 0 0-330.069334z m0 52.906667a112.213333 112.213333 0 1 1 0 224.426667 112.213333 112.213333 0 0 1 0-224.426667z m28.16 105.813333l40.789334-40.618666a19.2 19.2 0 1 0-27.221334-27.221334l-40.704 40.789334-40.704-40.789334a19.2 19.2 0 0 0-27.221333 27.221334l40.789333 40.704-40.789333 40.704a19.2 19.2 0 0 0 27.221333 27.221333l40.704-40.789333 40.704 40.789333a19.2 19.2 0 1 0 27.221334-27.221333l-40.789334-40.704zM507.733333 238.506667a85.845333 85.845333 0 1 0 64.085334 2.474666c0.853333-2.901333 1.28-5.973333 1.28-9.130666v-222.037334a33.024 33.024 0 1 0-66.048 0V231.76533300000006c0 2.304 0.256 4.522667 0.682666 6.656z"  horiz-adv-x="1194" />

    
    <glyph glyph-name="wrong-code" unicode="&#58917;" d="M835.242667-29.26933299999996a277.76 277.76 0 0 1 102.656-12.885334A255.402667 255.402667 0 0 0 746.666667-128h-469.333334A256.085333 256.085333 0 0 0 30.122667 61.09866699999998a38.4 38.4 0 1 0 71.424 20.224A204.885333 204.885333 0 0 1 296.192-59.733333000000016H727.893333c39.338667 0 76.202667 11.093333 107.434667 30.464z m97.28 508.16V622.933333a204.8 204.8 0 0 1-204.8 204.8H296.277333a204.8 204.8 0 0 1-204.8-204.8v-150.698666H91.306667a34.986667 34.986667 0 0 0-69.888 0V640a256 256 0 0 0 256 256h469.333333a256 256 0 0 0 256-256v-167.765333h-0.853333a34.986667 34.986667 0 1 0-69.205334 6.656z m-449.706667-103.168a176.64 176.64 0 1 0 70.229333 0 35.754667 35.754667 0 0 0 0.170667-3.413334v-70.741333h35.328a35.328 35.328 0 1 0 0-70.570667h-35.328v-35.328h70.570667a35.328 35.328 0 0 0 0-70.570666h-70.570667v-70.656a35.328 35.328 0 0 0-70.656 0V372.22400000000005c0 1.194667 0 2.389333 0.170667 3.498667z m35.072 67.157333a105.898667 105.898667 0 1 1 0 211.797333 105.898667 105.898667 0 0 1 0-211.797333z m355.498667-377.173333c15.104-7.68 32.085333-11.946667 50.090666-11.946667a113.834667 113.834667 0 0 1 100.778667 164.096L873.472 65.70666700000004z m-43.776 39.082666l155.904 157.269334a111.36 111.36 0 0 1-62.037334 18.773333c-62.122667 0-112.554667-50.858667-112.554666-113.493333 0-23.125333 6.826667-44.629333 18.688-62.549334z m93.866666-111.530666A173.312 173.312 0 0 0 750.933333 167.338667c0 96.085333 77.226667 173.994667 172.544 173.994666 95.317333 0 172.629333-77.909333 172.629334-174.08 0-96.085333-77.312-173.994667-172.629334-173.994666z"  horiz-adv-x="1109" />

    
    <glyph glyph-name="wrong-reptile" unicode="&#58908;" d="M161.791596 153.943188a317.353873 317.353873 0 0 0-3.413325 74.239815h-0.853331V339.457391H37.119907a37.119907 37.119907 0 1 0 0 74.239815h120.405033V599.211409H37.119907a37.119907 37.119907 0 1 0 0 74.239814h140.03165C225.962102 803.072232 357.289773 896 511.572054 896c154.367614 0 285.695286-92.927768 334.335165-222.63411h141.055647a37.119907 37.119907 0 0 0 0-74.239814h-120.405032v-185.42887h120.405032a37.119907 37.119907 0 0 0 0-74.239815H787.710031V599.211409H236.287409v-371.028406h1.023998a247.978047 247.978047 0 0 1-1.023998-22.271944c0-130.815673 102.741076-239.103402 236.372743-257.108691V262.998916a39.423901 39.423901 0 0 0 78.762469 0V-51.197632a285.183287 285.183287 0 0 1 98.645087 32.255919c17.578623-19.882617 38.57057-37.034574 62.037178-50.773206A368.212413 368.212413 0 0 0 511.99872-127.99744c-148.394296 0-275.455311 85.845119-328.276513 207.786147H37.119907a37.119907 37.119907 0 1 0 0 74.239815h124.671689z m598.867836 519.422702C716.456876 761.17367 621.566446 821.845519 511.486721 821.845519c-109.909059 0-204.799488-60.671848-249.17271-148.479629h498.345421z m58.53852-713.640883a170.66624 170.66624 0 1 0 0 341.33248 170.66624 170.66624 0 0 0 0-341.33248z m0 54.613197a116.053043 116.053043 0 1 1 0 232.106087 116.053043 116.053043 0 0 1 0-232.106087zM847.528548 128.00192l42.66656-42.581227a20.053283 20.053283 0 1 0-28.415929-28.330596L819.197952 99.671324l-42.581227-42.66656a20.053283 20.053283 0 0 0-28.330596 28.415929L790.867356 128.00192l-42.66656 42.581227a20.053283 20.053283 0 0 0 28.415929 28.330596l42.581227-42.581227 42.581227 42.66656a20.053283 20.053283 0 1 0 28.330596-28.415929L847.528548 128.00192z"  horiz-adv-x="1024" />

    
    <glyph glyph-name="unaccount" unicode="&#58909;" d="M981.333333 377.173333v-51.541333a215.296 215.296 0 0 1-73.216-6.997333V343.04a157.013333 157.013333 0 0 0-22.442666-1.621333c-43.946667 0-83.456 17.578667-110.592 45.482666-27.136-27.904-66.645333-45.482667-110.592-45.482666-44.373333 0-84.309333 17.92-111.530667 46.506666a153.770667 153.770667 0 0 0-111.530667-46.506666c-44.288 0-84.053333 17.92-111.189333 46.08-28.16-28.16-70.229333-46.08-120.064-46.08-12.117333 0-23.637333 1.024-34.56 3.072v-379.221334h650.752a210.261333 210.261333 0 0 1 143.530667-51.285333 57.856 57.856 0 0 0-47.189334-24.832H161.024a59.733333 59.733333 0 0 0-58.624 60.928V379.392A130.389333 130.389333 0 0 0 59.989333 469.333333H59.733333l0.170667 2.133334A145.322667 145.322667 0 0 0 59.733333 477.866667h0.512L73.386667 683.093333C81.066667 802.986667 177.834667 896 294.570667 896H789.333333c116.736 0 213.504-93.098667 221.098667-212.906667l13.141333-205.226666H1024l-0.085333-5.717334 0.085333-1.706666h-0.170667A135.082667 135.082667 0 0 0 981.333333 377.173333z m-69.12-347.562666a111.274667 111.274667 0 0 1 150.186667 151.04 29.013333 29.013333 0 0 0-3.925333-4.778667l-146.261334-146.261333z m-42.325333 39.253333l147.712 147.797333a28.842667 28.842667 0 0 0 6.826667 5.034667 111.274667 111.274667 0 0 1-154.453334-152.746667zM964.266667-42.666667a170.666667 170.666667 0 1 0 0 341.333334 170.666667 170.666667 0 0 0 0-341.333334z m-4.864 513.024h-0.768l-13.312 208.384c-5.376 84.48-73.728 150.186667-156.16 150.186667H294.656c-82.432 0-150.698667-65.706667-156.16-150.186667L125.696 477.866667h0.938667c0-37.717333 37.461333-68.266667 83.626666-68.266667 43.178667 0 78.762667 26.794667 83.114667 61.184a127.744 127.744 0 0 0-0.170667 7.082667c0 18.773333 16.554667 34.133333 37.034667 34.133333h0.768c20.48 0 37.12-15.36 37.12-34.133333l-0.256-7.936c4.266667-33.962667 35.584-60.330667 73.642667-60.330667 40.96 0 74.24 30.549333 74.24 68.266667 0-2.304 0.170667-4.522667 0.682666-6.741334a127.744 127.744 0 0 0-0.170666 6.741334c0 18.773333 16.554667 34.133333 37.034666 34.133333s37.12-15.36 37.12-34.133333c0-37.717333 33.28-68.266667 74.24-68.266667 36.864 0 67.584 24.917333 73.216 57.429333A127.488 127.488 0 0 0 737.28 477.866667c0 18.773333 16.64 34.133333 37.12 34.133333a41.130667 41.130667 0 0 0 1.365333 0c20.48 0 37.12-15.36 37.12-34.133333 0-3.669333-0.170667-7.253333-0.512-10.837334 5.632-32.512 36.266667-57.429333 73.301334-57.429333 38.144 0 69.632 26.624 73.728 60.757333z"  horiz-adv-x="1194" />

    
    <glyph glyph-name="bulb" unicode="&#58907;" d="M182.275657 740.205714a32.475429 32.475429 0 0 1-32.036571 8.777143 33.645714 33.645714 0 0 1-23.405715-24.137143 34.889143 34.889143 0 0 1 8.557715-32.914285l46.811428-48.347429a32.475429 32.475429 0 0 1 32.036572-8.850286 33.645714 33.645714 0 0 1 23.405714 24.137143 34.889143 34.889143 0 0 1-8.557714 32.987429l-46.811429 48.274285z m629.467429 0l-46.811429-48.274285a34.889143 34.889143 0 0 1-8.630857-33.060572 33.645714 33.645714 0 0 1 23.405714-24.137143 32.475429 32.475429 0 0 1 32.036572 8.777143l46.811428 48.347429a34.889143 34.889143 0 0 1 8.630857 32.987428 33.645714 33.645714 0 0 1-23.405714 24.137143 32.475429 32.475429 0 0 1-32.036571-8.777143zM99.477943 469.796571H33.137371A33.645714 33.645714 0 0 1 0.003657 435.638857a33.645714 33.645714 0 0 1 33.133714-34.157714h66.267429a33.645714 33.645714 0 0 1 33.133714 34.157714 33.645714 33.645714 0 0 1-33.133714 34.157714z m861.476571 0h-66.267428a33.645714 33.645714 0 0 1-33.133715-34.157714 33.645714 33.645714 0 0 1 33.133715-34.157714h66.194285a32.914286 32.914286 0 0 1 29.257143 16.896 35.108571 35.108571 0 0 1 0 34.523428 32.914286 32.914286 0 0 1-29.257143 16.896zM463.875657 862.646857v-68.315428a33.645714 33.645714 0 0 1 33.133714-34.157715 33.645714 33.645714 0 0 1 33.133715 34.157715V862.646857A33.645714 33.645714 0 0 1 497.009371 896a33.645714 33.645714 0 0 1-33.133714-33.353143zM265.073371 384.438857c0 132.022857 103.862857 239.177143 231.862858 239.177143 128.146286 0 232.009143-107.154286 232.009142-239.177143 0-132.096-103.862857-239.177143-231.936-239.177143S265.073371 252.342857 265.073371 384.438857z m-66.267428 0c0-169.837714 133.485714-307.492571 298.203428-307.492571s298.203429 137.654857 298.203429 307.492571c0 169.764571-133.485714 307.419429-298.203429 307.419429S198.805943 554.203429 198.805943 384.438857z m231.862857-478.354286a33.645714 33.645714 0 0 1 33.206857-34.084571h66.267429a33.645714 33.645714 0 0 1 32.182857 34.157714 33.645714 33.645714 0 0 1-32.182857 34.157715h-66.267429a33.645714 33.645714 0 0 1-33.133714-34.157715z m-66.194286 102.546286a33.645714 33.645714 0 0 1 33.133715-34.157714h198.802285a33.645714 33.645714 0 0 1 32.329143 34.157714 33.645714 33.645714 0 0 1-32.329143 34.157714H397.608229c-8.777143 0-17.188571-3.584-23.405715-9.947428a34.669714 34.669714 0 0 1-9.728-24.137143z"  horiz-adv-x="1024" />

    
    <glyph glyph-name="sorry" unicode="&#58910;" d="M512 896A512 512 0 0 1 0 384 512 512 0 0 1 512-128 512 512 0 0 1 1024 384 512 512 0 0 1 512 896z m311.115294-823.115294a437.729882 437.729882 0 0 0-139.926588-94.268235c-54.211765-23.009882-111.796706-34.635294-171.188706-34.635295a437.488941 437.488941 0 0 0-311.115294 128.843295 437.729882 437.729882 0 0 0-94.268235 139.866353A436.645647 436.645647 0 0 0 71.981176 384a437.488941 437.488941 0 0 0 128.843295 311.115294A437.729882 437.729882 0 0 0 340.690824 789.383529 436.645647 436.645647 0 0 0 512 824.018824a437.488941 437.488941 0 0 0 311.115294-128.843295 437.729882 437.729882 0 0 0 94.268235-139.866353c23.009882-54.332235 34.635294-111.917176 34.635295-171.309176a437.488941 437.488941 0 0 0-128.90353-311.115294zM194.198588 513.626353a59.994353 59.994353 0 1 1 119.988706 0 59.994353 59.994353 0 0 1-119.988706 0z m515.312941 0a59.994353 59.994353 0 1 1 119.988706 0 59.994353 59.994353 0 0 1-119.988706 0z m-66.740705-323.463529H378.88a35.960471 35.960471 0 1 1 0-71.981177h263.951059a35.960471 35.960471 0 1 1 0 72.041412z"  horiz-adv-x="1024" />

    
    <glyph glyph-name="no-id" unicode="&#58918;" d="M340.845714 426.422857h54.857143v-313.344h-54.857143V426.422857z m122.002286 0h129.901714c23.990857 0 44.763429-4.096 62.317715-12.288 17.554286-8.192 31.890286-19.382857 43.008-33.572571 11.117714-14.189714 19.382857-30.793143 24.795428-49.810286 5.412571-19.017143 8.118857-39.350857 8.118857-61.001143 0-21.650286-2.706286-41.984-8.118857-61.001143-5.412571-19.017143-13.677714-35.620571-24.795428-49.810285a115.785143 115.785143 0 0 0-43.008-33.572572c-17.554286-8.192-38.326857-12.288-62.317715-12.288H462.848V426.422857z m54.857143-268.580571h53.979428c21.357714 0 38.838857 2.852571 52.443429 8.557714 13.604571 5.705143 24.283429 13.604571 32.036571 23.698286 7.753143 10.093714 13.019429 21.942857 15.798858 35.547428 2.779429 13.604571 4.169143 28.306286 4.169142 44.105143 0 15.798857-1.389714 30.500571-4.169142 44.105143a85.577143 85.577143 0 0 1-15.798858 35.547429 76.726857 76.726857 0 0 1-32.036571 23.698285c-13.604571 5.705143-31.085714 8.557714-52.443429 8.557715h-53.979428v-223.817143zM841.142857-18.285714V457.142857a36.571429 36.571429 0 1 0 73.142857 0v-512a36.571429 36.571429 0 0 0-36.571428-36.571428H160.914286a36.571429 36.571429 0 0 0-36.571429 36.571428V457.142857a36.571429 36.571429 0 0 0 73.142857 0v-475.428571h643.657143zM506.733714 774.948571L111.835429 429.641143a36.571429 36.571429 0 1 0-48.128 55.003428l418.230857 365.714286a36.571429 36.571429 0 0 0 47.250285 0.731429l444.928-365.714286a36.571429 36.571429 0 0 0-46.518857-56.466286l-420.864 345.965715z"  horiz-adv-x="1024" />

    
    <glyph glyph-name="checkmark-all" unicode="&#58882;" d="M603.456-36.54399999999998H1280V-128H603.456v91.456zM813.696 192H1280v-91.456h-466.304V192z m201.152 219.456H1280V320h-265.152V411.456zM1024 841.152L356.544 173.69600000000003 73.152 466.304 0 393.152l356.544-356.608L1097.152 768z"  horiz-adv-x="1280" />

    
    <glyph glyph-name="checkmark" unicode="&#58884;" d="M1337.064227 896L487.667528 46.603301 127.058262 418.92066l-93.155697-93.053887L487.667528-128 1430.219924 802.844303z"  horiz-adv-x="1438" />

    
    <glyph glyph-name="todolist" unicode="&#58885;" d="M170.666667 782.222222a56.888889 56.888889 0 0 1-56.888889-56.888889v-682.666666a56.888889 56.888889 0 0 1 56.888889-56.888889h910.222222a56.888889 56.888889 0 0 1 56.888889 56.888889V725.333333a56.888889 56.888889 0 0 1-56.888889 56.888889H170.666667z m0 113.777778h910.222222a170.666667 170.666667 0 0 0 170.666667-170.666667v-682.666666a170.666667 170.666667 0 0 0-170.666667-170.666667H170.666667a170.666667 170.666667 0 0 0-170.666667 170.666667V725.333333a170.666667 170.666667 0 0 0 170.666667 170.666667zM0 611.555556m0 0l1251.555556 0q0 0 0 0l0-113.777778q0 0 0 0l-1251.555556 0q0 0 0 0l0 113.777778q0 0 0 0ZM170.666667 213.33333300000004m56.888889 0l113.777777 0q56.888889 0 56.888889-56.888889l0 0q0-56.888889-56.888889-56.888888l-113.777777 0q-56.888889 0-56.888889 56.888888l0 0q0 56.888889 56.888889 56.888889ZM455.111111 213.33333300000004m56.888889 0l0 0q56.888889 0 56.888889-56.888889l0 0q0-56.888889-56.888889-56.888888l0 0q-56.888889 0-56.888889 56.888888l0 0q0 56.888889 56.888889 56.888889Z"  horiz-adv-x="1251" />

    
    <glyph glyph-name="todolist1" unicode="&#58886;" d="M819.2 793.6a51.2 51.2 0 0 0 0 102.4 153.6 153.6 0 0 0 153.6-153.6v-716.8a153.6 153.6 0 0 0-153.6-153.6H204.8a153.6 153.6 0 0 0-153.6 153.6V742.4a153.6 153.6 0 0 0 153.6 153.6 51.2 51.2 0 1 0 0-102.4 51.2 51.2 0 0 1-51.2-51.2v-716.8a51.2 51.2 0 0 1 51.2-51.2h614.4a51.2 51.2 0 0 1 51.2 51.2V742.4a51.2 51.2 0 0 1-51.2 51.2zM358.4 896m51.2 0l204.8 0q51.2 0 51.2-51.2l0 0q0-51.2-51.2-51.2l-204.8 0q-51.2 0-51.2 51.2l0 0q0 51.2 51.2 51.2ZM256 640m51.2 0l409.6 0q51.2 0 51.2-51.2l0 0q0-51.2-51.2-51.2l-409.6 0q-51.2 0-51.2 51.2l0 0q0 51.2 51.2 51.2ZM256 435.2m51.2 0l307.2 0q51.2 0 51.2-51.2l0 0q0-51.2-51.2-51.2l-307.2 0q-51.2 0-51.2 51.2l0 0q0 51.2 51.2 51.2ZM256 230.4m51.2 0l204.8 0q51.2 0 51.2-51.2l0 0q0-51.2-51.2-51.2l-204.8 0q-51.2 0-51.2 51.2l0 0q0 51.2 51.2 51.2Z"  horiz-adv-x="1024" />

    
    <glyph glyph-name="todolist2" unicode="&#58911;" d="M842.0864-8.0896a51.2 51.2 0 0 1 28.3136 45.7728V742.4a51.2 51.2 0 0 1-51.2 51.2H204.8a51.2 51.2 0 0 1-51.2-51.2v-704.7168a51.2 51.2 0 0 1 28.3136-45.7728l12.8-6.4 76.288 76.288a51.2 51.2 0 0 0 72.3968 0L409.6-4.4032l66.2016 66.2016a51.2 51.2 0 0 0 72.3968 0L614.4-4.4032l66.2016 66.2016a51.2 51.2 0 0 0 72.3968 0l76.288-76.288 12.8 6.4z m-601.088-104.96a51.2 51.2 0 0 0-59.0848-9.5232l-45.824 22.8864A153.6 153.6 0 0 0 51.2 37.6832V742.4a153.6 153.6 0 0 0 153.6 153.6h614.4a153.6 153.6 0 0 0 153.6-153.6v-704.7168a153.6 153.6 0 0 0-84.8896-137.3696l-45.824-22.8864a51.2 51.2 0 0 0-59.0848 9.5744L716.8-46.7968l-66.2016-66.2016a51.2 51.2 0 0 0-72.3968 0L512-46.7968l-66.2016-66.2016a51.2 51.2 0 0 0-72.3968 0L307.2-46.7968l-66.2016-66.2016zM332.8 614.4m25.6 0l307.2 0q25.6 0 25.6-25.6l0 0q0-25.6-25.6-25.6l-307.2 0q-25.6 0-25.6 25.6l0 0q0 25.6 25.6 25.6ZM332.8 460.8m25.6 0l307.2 0q25.6 0 25.6-25.6l0 0q0-25.6-25.6-25.6l-307.2 0q-25.6 0-25.6 25.6l0 0q0 25.6 25.6 25.6ZM332.8 307.2m25.6 0l307.2 0q25.6 0 25.6-25.6l0 0q0-25.6-25.6-25.6l-307.2 0q-25.6 0-25.6 25.6l0 0q0 25.6 25.6 25.6Z"  horiz-adv-x="1024" />

    
    <glyph glyph-name="assignment" unicode="&#58919;" d="M511.991156 337.454545a279.272727 279.272727 0 1 0 0 558.545455 279.272727 279.272727 0 0 0 0-558.545455z m0 93.09091a186.181818 186.181818 0 1 1 0 372.363636 186.181818 186.181818 0 0 1 0-372.363636zM511.991156 430.545455v-93.09091a372.363636 372.363636 0 0 1-372.363636-372.363636H46.536611c0 257.070545 208.384 465.454545 465.454545 465.454546zM46.536611 11.636364m46.545454 0l279.272728 0q46.545455 0 46.545454-46.545455l0 0q0-46.545455-46.545454-46.545454l-279.272728 0q-46.545455 0-46.545454 46.545454l0 0q0 46.545455 46.545454 46.545455ZM818.53952 230.725818L791.263884 258.001455a46.545455 46.545455 0 0 0 65.815272 65.815272l98.769455-98.722909c1.349818-1.396364 2.606545-2.792727 3.723636-4.235636A46.545455 46.545455 0 0 0 930.900247 137.634909h-372.363636a46.545455 46.545455 0 1 0 0 93.090909h260.002909zM670.897338 11.636364l27.275637-27.275637A46.545455 46.545455 0 0 0 632.357702-81.454545l-98.769455 98.722909a47.010909 47.010909 0 0 0-3.723636 4.235636A46.545455 46.545455 0 0 0 558.536611 104.727273h372.363636a46.545455 46.545455 0 1 0 0-93.090909h-260.002909z"  horiz-adv-x="1024" />

    
    <glyph glyph-name="kucun" unicode="&#58920;" d="M966.144 639.720727l-82.990545 159.744C862.626909 838.749091 811.752727 869.655273 767.488 869.655273H257.163636c-44.264727 0-95.232-30.673455-115.898181-69.725091L58.228364 643.490909c-17.873455-33.885091-31.883636-90.298182-31.883637-128.558545v-525.498182c0-50.269091 40.773818-91.089455 91.042909-91.089455h789.131637a91.136 91.136 0 0 1 91.042909 91.089455V511.208727c0 38.167273-13.824 94.673455-31.464727 128.512z m-854.109091-24.669091l82.850909 156.392728c10.379636 19.549091 40.029091 37.469091 62.277818 37.469091H767.534545c22.109091 0 51.572364-17.873455 61.812364-37.515637l82.990546-159.650909c3.909818-7.586909 7.586909-17.314909 10.984727-27.741091H99.886545c3.630545 11.682909 7.68 22.714182 12.101819 31.092364z m824.878546-625.617454c0-16.756364-13.591273-30.347636-30.347637-30.347637H117.434182a30.394182 30.394182 0 0 0-30.347637 30.347637V514.932364c0 2.466909 0.465455 5.632 0.744728 8.378181h848.058182c0.372364-4.049455 1.024-8.517818 1.024-12.101818v-521.774545zM767.162182 356.072727l-152.855273-163.281454-61.719273 61.579636a30.347636 30.347636 0 1 1-42.914909-42.914909l83.223273-82.990545a30.114909 30.114909 0 0 1 21.410909-8.890182 30.254545 30.254545 0 0 1 12.334546 2.792727 29.742545 29.742545 0 0 1 12.008727 7.586909l172.869818 184.645818a30.394182 30.394182 0 0 1-44.357818 41.472z m-345.646546-44.311272H239.336727a30.394182 30.394182 0 0 1 0-60.695273h182.178909a30.347636 30.347636 0 1 1 0 60.695273z m-92.16-129.489455H238.312727a30.394182 30.394182 0 0 1 0-60.695273h91.089455a30.254545 30.254545 0 1 1 0 60.695273z"  horiz-adv-x="1024" />

    
    <glyph glyph-name="chaping" unicode="&#58921;" d="M512 896C230.4 896 0 665.6 0 384s230.4-512 512-512 512 230.4 512 512S793.6 896 512 896z m0-960C268.8-64 64 134.4 64 384S262.4 832 512 832 960 633.6 960 384 755.2-64 512-64z m230.4 608s-6.4 0-6.4 6.4l-12.8 32c-6.4 6.4-12.8 6.4-12.8 0l-12.8-32-6.4-6.4-32-6.4c-6.4 0-12.8-12.8-6.4-12.8l25.6-25.6v-6.4l-6.4-32c0-6.4 6.4-12.8 12.8-6.4l32 12.8h6.4l25.6-19.2c6.4-6.4 12.8 0 12.8 6.4l-6.4 32v6.4l25.6 25.6c6.4 6.4 0 12.8-6.4 12.8l-32 12.8zM377.6 140.8c70.4 70.4 192 70.4 262.4 0 12.8-12.8 32-12.8 44.8 0 12.8 12.8 12.8 32 0 44.8C640 230.4 576 256 512 256s-128-25.6-179.2-70.4c-12.8-12.8-12.8-32 0-44.8 12.8-12.8 32-12.8 44.8 0z m-25.6 320l-6.4 32V499.2l25.6 25.6c6.4 6.4 0 12.8-6.4 12.8l-25.6 6.4s-6.4 0-6.4 6.4l-19.2 32c-6.4 6.4-12.8 6.4-12.8 0l-19.2-32-6.4-6.4-32-6.4c-6.4 0-12.8-12.8-6.4-12.8l25.6-25.6v-38.4c-6.4-6.4 6.4-12.8 12.8-12.8l32 12.8h6.4l25.6-12.8c6.4 0 19.2 6.4 12.8 12.8z"  horiz-adv-x="1024" />

    
    <glyph glyph-name="return" unicode="&#58922;" d="M512-64A448 448 0 1 1 512 832a448 448 0 0 1 0-896zM421.824 378.496l-94.528 94.72 94.528 94.528v-68.096h118.592c38.592 0 74.88-14.976 102.016-42.304 27.2-27.264 42.304-63.616 42.304-102.592a144.256 144.256 0 0 0-144.96-144.64H398.272a26.56 26.56 0 1 0 0 53.12h141.504A91.456 91.456 0 0 1 631.68 354.752a91.008 91.008 0 0 1-91.136 91.648l-118.656 0.064v-68.032z"  horiz-adv-x="1024" />

    
    <glyph glyph-name="visit" unicode="&#58923;" d="M281.984 135.04H568.96c1.28-24.256 2.304-38.912 0-63.616H281.984a31.808 31.808 0 1 0 0 63.552z m0 656.96h605.632c17.6 0-12.032-18.688-35.328-23.424-32.96-21.568-59.2-29.952-77.312-40.192H281.984a31.808 31.808 0 1 0 0 63.616zM922.688 135.296l-1.408-1.984a36.224 36.224 0 0 0-12.608-12.288l-14.72-10.048-260.928-151.872-0.512 0.768-16.192-9.6a37.44 37.44 0 0 0-19.392-6.144 38.4 38.4 0 0 0-38.656 38.144V583.04a37.376 37.376 0 0 0 19.328 32l14.784 9.92 157.44 90.624 139.52 76.352a38.336 38.336 0 0 0 38.592-38.208v-600.64a34.496 34.496 0 0 0-5.248-17.728zM324.608 280.128l-0.704-0.704a38.784 38.784 0 0 0-54.592 0.64 37.824 37.824 0 0 0 0.64 54.016l53.12 52.48H118.72a38.4 38.4 0 0 0-38.592 38.272 38.4 38.4 0 0 0 38.656 38.144H323.2l-53.12 52.608a37.824 37.824 0 0 0 0 54.016 39.04 39.04 0 0 0 54.72 0l119.04-117.76a37.824 37.824 0 0 0 0-54.016l-119.232-117.76z"  horiz-adv-x="1024" />

    
    <glyph glyph-name="sign" unicode="&#58924;" d="M187.776 80.32h648.448c8.896 0 16.064-7.232 16.064-16.128v-43.52c0-8.896-7.168-16.064-16.064-16.064H187.776a16.064 16.064 0 0 0-16.064 16.064v43.52c0 8.96 7.168 16.128 16.064 16.128z m614.208 201.664h-127.36c-33.92 0-62.208 25.984-64.896 59.84-7.104 91.392 91.392 135.04 91.392 247.168C701.12 684.224 628.608 760.96 512 760.96s-188.992-76.8-188.992-171.904c0-112.064 98.496-155.776 91.392-247.168a65.152 65.152 0 0 0-64.896-59.84H222.016a50.304 50.304 0 0 1-50.304-50.304v-84.864c0-8.96 7.168-16.128 16.064-16.128h648.448c8.896 0 16.064 7.232 16.064 16.128V231.68a50.368 50.368 0 0 1-50.304 50.304z"  horiz-adv-x="1024" />

    
    <glyph glyph-name="edit1" unicode="&#58925;" d="M512 832a447.36 447.36 0 0 1-448-448c0-247.872 200.128-448 448-448s448 200.128 448 448-200.128 448-448 448z m-244.032-632.32l35.84 98.56c0 3.008 2.944 5.952 5.952 8.96l238.912 238.912c3.008 3.008 11.968 3.008 14.976 0l59.712-59.712c3.008-3.008 3.008-11.968 0-14.912l-238.912-238.976c-3.008-2.944-6.016-2.944-8.96-5.952l-95.616-35.84c-5.952 0-11.904 5.952-11.904 8.96z m409.152-56.768H288.832c-8.96 0-17.92 8.96-17.92 17.92s8.96 17.92 17.92 17.92h388.288c8.96 0 17.92-8.96 17.92-17.92s-8.96-17.92-17.92-17.92z m14.912 397.248l-23.872-23.872a18.176 18.176 0 0 0-23.872 0l-50.816 50.752a18.176 18.176 0 0 0 0 23.872l23.936 23.936a18.176 18.176 0 0 0 23.872 0l50.752-50.816a18.176 18.176 0 0 0 0-23.872z"  horiz-adv-x="1024" />

    
    <glyph glyph-name="call" unicode="&#58926;" d="M713.728 293.333333c-46.634667 0-80.725333-40.362667-121.088-40.362666-40.32 0-221.866667 177.621333-221.866667 221.866666 0 44.032 40.32 65.450667 40.32 110.933334 0 32.64-121.045333 231.808-171.434666 231.808-50.389333 0-171.392-89.514667-171.392-171.392 0-239.488 441.173333-695.765333 716.032-695.765334 75.648 0 171.434667 79.488 171.434666 171.434667 0 31.530667-196.693333 171.477333-242.005333 171.477333z"  horiz-adv-x="1024" />

    
    <glyph glyph-name="contacts" unicode="&#58927;" d="M924.16 112.064H628.224a47.424 47.424 0 1 0 0 94.848h295.872a47.424 47.424 0 0 0 0.064-94.848zM776.192-35.84a47.424 47.424 0 0 0-47.424 47.424V307.392a47.424 47.424 0 1 0 94.848 0v-295.872a47.36 47.36 0 0 0-47.424-47.36zM289.728 619.2a184.768 184.768 0 1 1 369.536 0 184.768 184.768 0 0 1-369.536 0zM513.984 160.768c0 82.624 33.792 157.248 88.128 211.136a420.48 420.48 0 0 1-127.616 20.288A422.016 422.016 0 0 1 52.48-29.824l532.288-6.08a311.296 311.296 0 0 0-70.784 196.672z"  horiz-adv-x="1024" />

    
    <glyph glyph-name="Report" unicode="&#58928;" d="M0 896h1024v-1024H0zM131.456 853.333333h761.088A88.789333 88.789333 0 0 0 981.333333 764.544v-761.088A88.789333 88.789333 0 0 0 892.544-85.333333H131.456A88.789333 88.789333 0 0 0 42.666667 3.456V764.544A88.789333 88.789333 0 0 0 131.456 853.333333z m326.272-172.416v-600.234666h140.48V680.917333h-140.48z m210.709333-332.032v-268.202666h140.501334V348.885333h-140.501334zM240.64 476.586667v-395.904h140.48V476.586667h-140.48z"  horiz-adv-x="1024" />

    
    <glyph glyph-name="egg" unicode="&#58929;" d="M657.088 435.2L896 256a384 384 0 1 0-768 0l0.192 19.584c0.704 41.024 3.84 81.152 8.96 119.936l206.528-155.712 1.792 2.432 21.504-16.064 76.8 102.4 85.312-64 128 170.56zM512 896c189.312 0 346.176-228.48 377.856-528.64L640 554.624 512 384 426.688 448 344.96 339.072 152.96 483.712C206.784 718.976 341.376 887.744 500.16 895.68z"  horiz-adv-x="1024" />

    
    <glyph glyph-name="shop" unicode="&#58931;" d="M914.2336 672H109.0496a43.968 43.968 0 0 0-43.968 44.032V818.944c0 24.32 19.648 43.968 43.968 43.968h805.184c24.32 0 43.968-19.648 43.968-43.968v-103.04a44.032 44.032 0 0 0-43.968-43.968z m-785.28 64h765.312v62.976H129.0176V736zM979.1936 433.088v44.8L960.0576 472.384l-57.344 199.232H119.7376l-56.448-199.04-19.2 5.312v-44.864a43.52 43.52 0 0 0-34.496 16.96 45.44 45.44 0 0 0-8.192 39.04l0.256 0.896 69.632 245.568h879.36l71.04-246.464a44.8 44.8 0 0 0-42.496-55.936z m0 64a20.416 20.416 0 0 1-16-7.68 18.432 18.432 0 0 1-3.392-16l19.392 4.864v18.816zM44.0896 478.272l19.392-4.864a18.432 18.432 0 0 1-3.392 16 20.416 20.416 0 0 1-16 7.68v-18.816zM152.3776 297.728a151.296 151.296 0 0 0-108.416 45.248A148.544 148.544 0 0 0 0.6976 449.92l-0.192 13.056C0.3136 467.392 0.0576 472.576 0.0576 478.4a32 32 0 1 0 64 0c0-4.928 0-9.408 0.256-13.696 0.064-4.992 0.256-10.112 0.192-15.616-0.32-23.04 8.576-44.8 24.96-61.312a87.936 87.936 0 0 1 150.784 61.568 32 32 0 1 0 63.936 0 152.128 152.128 0 0 0-151.872-151.68zM392.0576 297.728a151.296 151.296 0 0 0-108.416 45.248 148.544 148.544 0 0 0-43.328 107.008 31.936 31.936 0 1 0 63.808-0.64c-0.32-23.04 8.576-44.8 24.96-61.312a87.936 87.936 0 0 1 150.784 61.632 32 32 0 1 0 63.936-0.064 152 152 0 0 0-151.744-151.872zM630.8416 297.728a151.296 151.296 0 0 0-108.416 45.248 148.544 148.544 0 0 0-43.392 107.008 32 32 0 0 0 32 31.616h0.384c17.664-0.192 31.808-14.72 31.552-32.32-0.256-23.04 8.64-44.8 24.96-61.248a87.936 87.936 0 0 1 150.784 61.632 32 32 0 1 0 64-0.064 152.128 152.128 0 0 0-151.872-151.872zM870.9056 297.728a151.936 151.936 0 0 0-151.808 151.872 32 32 0 1 0 64 0 87.936 87.936 0 0 1 150.72-61.632 85.76 85.76 0 0 1 24.96 61.312c-0.064 5.504 0.128 10.624 0.192 15.616 0.128 4.288 0.32 8.832 0.32 13.696a32 32 0 1 0 63.936 0c0-5.888-0.128-11.008-0.32-15.616-0.064-4.672-0.256-8.768-0.192-12.992a149.376 149.376 0 0 0-43.328-107.008 151.296 151.296 0 0 0-108.48-45.248z m26.368-393.92H126.0096A62.08 62.08 0 0 0 64.0576-34.176V337.92a32 32 0 1 0 64 0v-370.112h767.168v279.04a32 32 0 1 0 64 0v-281.024a62.08 62.08 0 0 0-61.952-62.08z"  horiz-adv-x="1024" />

    
    <glyph glyph-name="qi" unicode="&#58930;" d="M482.986667 72.2944c21.162667 0 41.642667 2.594133 61.2352 7.7824 10.786133 2.730667 24.576 7.7824 41.3696 15.018667l-89.429334 85.1968 95.4368 99.601066 89.429334-85.1968a417.792 417.792 0 0 1 29.354666 75.5712c8.874667 32.426667 13.243733 70.178133 13.243734 113.390934 0 99.191467-20.343467 175.9232-60.893867 230.058666-40.618667 54.272-99.9424 81.373867-177.902933 81.373867-73.250133 0-131.618133-26.0096-175.240534-78.0288-43.6224-52.0192-65.399467-129.774933-65.399466-233.403733 0-121.173333 31.197867-208.008533 93.5936-260.369067 40.413867-33.9968 88.814933-50.9952 145.2032-50.9952z m425.437866 324.539733c0-78.779733-9.6256-144.725333-28.808533-197.973333-15.633067-50.7904-38.638933-92.9792-69.0176-126.5664l101.9904-95.4368-96.597333-100.7616-106.769067 100.7616c-32.426667-19.592533-60.416-33.450667-83.968-41.3696-39.594667-13.243733-87.04-19.797333-142.267733-19.797333-115.165867 0-210.397867 34.4064-285.559467 103.150933C106.222933 101.64906699999995 60.6208 223.23199999999997 60.6208 383.65866700000004c0 161.5872 46.762667 283.784533 140.356267 366.592C277.435733 817.834667 372.394667 851.694933 486.058667 851.694933c114.414933 0 210.397867-35.84 288.017066-107.451733 89.565867-82.807467 134.417067-198.587733 134.417067-347.409067z m302.967467 275.456h-173.397333V830.0544h173.397333v-157.764267z m-173.397333-78.0288h173.397333V-59.733333000000016h-173.397333V594.2613329999999z"  horiz-adv-x="1228" />

    
    <glyph glyph-name="iconarrow" unicode="&#58933;" d="M181.184 416.32l276.48 276.48a32 32 0 0 1-45.248 45.248L81.28 407.04a32 32 0 0 1 0-45.248l339.2-341.824a32 32 0 0 1 45.248 45.248L181.312 352.32h739.456a32 32 0 1 1 0 64H181.12z"  horiz-adv-x="1024" />

    
    <glyph glyph-name="iconexplain" unicode="&#58934;" d="M512 896C230.4 896 0 665.6 0 384s230.4-512 512-512 512 230.4 512 512-230.4 512-512 512zM448 640h128v-128H448V640z m192-512H384v64h64V384H384V448h192v-256h64v-64z"  horiz-adv-x="1024" />

    
    <glyph glyph-name="iconshop" unicode="&#58935;" d="M202.112 33.792H121.28V734.336C121.28 818.368 201.408 882.496 296.32 882.496H512c95.04 0 175.168-64.128 175.168-148.16v-754.432H606.272V734.336c0 34.944-40.512 67.328-94.336 67.328H296.384c-53.824 0-94.272-32.384-94.272-67.328v-700.544z m484.992-53.888H606.272V572.672c0 52.032 42.24 94.272 94.272 94.272h107.776c52.096 0 94.336-42.24 94.336-94.272v-592.768H821.76V572.672a13.44 13.44 0 0 1-13.44 13.44h-107.84a13.44 13.44 0 0 1-13.44-13.44v-592.768zM40.448 33.792h943.04a40.448 40.448 0 0 0 0-80.832H40.448a40.448 40.448 0 0 0 0 80.832z m269.44 646.656h134.72c26.88 0 40.384-13.44 40.384-40.448 0-26.88-13.44-40.384-40.384-40.384H309.888c-26.944 0-40.448 13.44-40.448 40.384 0 26.944 13.44 40.448 40.448 40.448z m0-215.552h134.72c26.88 0 40.384-13.44 40.384-40.448 0-26.88-13.44-40.384-40.384-40.384H309.888c-26.944 0-40.448 13.44-40.448 40.384 0 26.944 13.44 40.448 40.448 40.448z m0-215.552h134.72c26.88 0 40.384-13.44 40.384-40.448 0-26.88-13.44-40.384-40.384-40.384H309.888c-26.944 0-40.448 13.44-40.448 40.384 0 26.944 13.44 40.448 40.448 40.448z"  horiz-adv-x="1024" />

    
    <glyph glyph-name="icondelete" unicode="&#58936;" d="M912 681.408H109.632a38.208 38.208 0 1 1 0-76.416h88.576v-469.12a164.672 164.672 0 0 1 164.48-164.48h296.192a164.672 164.672 0 0 1 164.48 164.48V605.12h88.64a38.208 38.208 0 1 1 0 76.288z m-449.472-468.416a38.208 38.208 0 1 0-76.416 0V452.928a38.208 38.208 0 1 0 76.416 0v-239.936z m172.864 0a38.208 38.208 0 1 0-76.416 0V452.928a38.208 38.208 0 1 0 76.416 0v-239.936zM364.48 721.408h292.608a38.208 38.208 0 1 1 0 76.416H364.48a38.208 38.208 0 1 1 0-76.416z"  horiz-adv-x="1024" />

    
    <glyph glyph-name="iconlike" unicode="&#58937;" d="M835.2 545.706667h-181.205333c-12.501333 0-18.773333 12.458667-18.773334 24.96v156.16c0 43.733333-37.546667 81.237333-81.237333 81.237333-37.504 0-74.965333-31.189333-81.194667-68.693333C448 589.354667 360.533333 533.162667 298.112 520.661333v-468.48h430.976c43.690667 6.186667 68.693333 25.002667 93.610667 68.693334L916.48 439.466667c12.416 50.090667-18.773333 106.24-81.28 106.24zM260.608 70.912V501.973333c0 12.501333-18.773333 25.002667-37.546667 25.002667H160.64c-25.002667 0-56.32-25.002667-56.32-56.32v-362.282667c0-31.189333 25.002667-62.506667 56.32-62.506666H223.146667c18.688 0.213333 37.504 12.714667 37.504 25.088z"  horiz-adv-x="1024" />

    
    <glyph glyph-name="icondislike" unicode="&#58938;" d="M188.8 222.293333h181.205333c12.501333 0 18.773333-12.458667 18.773334-24.96v-156.16c0-43.733333 37.546667-81.237333 81.237333-81.237333 37.504 0 74.965333 31.189333 81.194667 68.693333 24.789333 150.016 112.298667 206.208 174.677333 218.709334V715.818667H294.912c-43.733333-6.186667-68.693333-25.002667-93.610667-68.693334L107.52 328.533333c-12.416-50.090667 18.773333-106.24 81.28-106.24zM763.392 697.088v-431.018667c0-12.501333 18.773333-25.002667 37.546667-25.002666h62.464c25.002667 0 56.32 25.002667 56.32 56.32V659.626667c0 31.189333-25.002667 62.506667-56.32 62.506666H800.853333c-18.688-0.213333-37.504-12.714667-37.504-25.088z"  horiz-adv-x="1024" />

    
    <glyph glyph-name="iconlikedisplay" unicode="&#58939;" d="M835.2 503.04h-181.184c-12.544 0-18.816 12.48-18.816 24.96V684.16c0 43.712-37.504 81.28-81.216 81.28-37.504 0-75.008-31.232-81.216-68.736C448 546.688 360.512 490.496 298.112 478.016v-468.48h431.04c43.712 6.144 68.736 24.96 93.632 68.672L916.48 396.8c12.416 50.112-18.752 106.24-81.28 106.24zM835.2 503.04h-181.184c-12.544 0-18.816 12.48-18.816 24.96V684.16c0 43.712-37.504 81.28-81.216 81.28-37.504 0-75.008-31.232-81.216-68.736C448 546.688 360.512 490.496 298.112 478.016v-468.48h431.04c43.712 6.144 68.736 24.96 93.632 68.672L916.48 396.8c12.416 50.112-18.752 106.24-81.28 106.24z m-111.04-429.568H362.112V431.552c85.632 37.76 152.384 125.12 173.824 254.72 1.024 6.272 11.52 15.104 18.048 15.104 8.32 0 17.216-8.832 17.216-17.152V528c0-45.248 29.312-88.96 82.816-88.96h181.184c15.168 0 23.04-11.392 19.2-26.88l-90.88-308.416c-12.608-20.864-21.184-27.072-39.36-30.272zM260.608 28.288V459.328c0 12.48-18.816 24.96-37.504 24.96h-62.528c-24.96 0-56.32-24.96-56.32-56.32v-362.24c0-31.232 25.024-62.528 56.32-62.528h62.528c18.688 0.192 37.504 12.672 37.504 25.088z"  horiz-adv-x="1024" />

    
    <glyph glyph-name="icondislikedisplay" unicode="&#58940;" d="M188.8 264.96h181.184c12.544 0 18.816-12.48 18.816-24.96v-156.16c0-43.712 37.504-81.28 81.216-81.28 37.504 0 75.008 31.232 81.152 68.736 24.832 150.016 112.32 206.208 174.72 218.688v468.48H294.912c-43.712-6.144-68.736-24.96-93.632-68.672L107.52 371.2c-12.416-50.112 18.752-106.24 81.28-106.24zM188.8 264.96h181.184c12.544 0 18.816-12.48 18.816-24.96v-156.16c0-43.712 37.504-81.28 81.216-81.28 37.504 0 75.008 31.232 81.152 68.736 24.832 150.016 112.32 206.208 174.72 218.688v468.48H294.912c-43.712-6.144-68.736-24.96-93.632-68.672L107.52 371.2c-12.416-50.112 18.752-106.24 81.28-106.24z m111.04 429.568h362.048v-358.08c-85.632-37.76-152.384-125.12-173.824-254.72-1.024-6.272-11.52-15.104-18.048-15.104-8.32 0-17.216 8.832-17.216 17.152V240c0 45.248-29.312 88.96-82.816 88.96H188.8c-15.168 0-23.04 11.392-19.2 26.88l90.88 308.416c12.608 20.864 21.184 27.072 39.36 30.272zM763.392 739.712v-431.04c0-12.48 18.816-24.96 37.504-24.96h62.528c24.96 0 56.32 24.96 56.32 56.32v362.24c0 31.232-25.024 62.528-56.32 62.528h-62.528c-18.688-0.192-37.504-12.672-37.504-25.088z"  horiz-adv-x="1024" />

    
    <glyph glyph-name="tableware" unicode="&#58941;" d="M950.857143 896v-975.213714h-97.499429V310.85714299999995h-146.285714V652.2148569999999A243.785143 243.785143 0 0 0 950.857143 896zM365.714286 315.75771399999996v-394.971428H268.214857v394.971428A243.931429 243.931429 0 0 0 73.142857 554.642286v292.571428h97.499429v-341.284571h97.572571V847.213714H365.714286v-341.284571h97.499428V847.213714h97.572572v-292.571428A243.931429 243.931429 0 0 0 365.714286 315.75771399999996z"  horiz-adv-x="1024" />

    
    <glyph glyph-name="iconsite" unicode="&#58942;" d="M512 8.533333a68.266667 68.266667 0 1 0 0-136.533333 68.266667 68.266667 0 0 0 0 136.533333z m0 887.466667c188.5184 0 341.333333-159.470933 341.333333-356.181333 0-131.140267-113.7664-285.4912-341.333333-463.018667-227.566933 177.527467-341.333333 331.8784-341.333333 463.018667C170.666667 736.529067 323.4816 896 512 896z"  horiz-adv-x="1024" />

    
    <glyph glyph-name="takeaway" unicode="&#58943;" d="M744.727273 867.048727v-558.545454H67.211636a37.236364 37.236364 0 0 0-35.84 47.476363L170.356364 840.052364a37.236364 37.236364 0 0 0 35.746909 26.996363H744.727273z m484.631272 0a37.236364 37.236364 0 0 0 35.84-27.275636l135.726546-484.072727a37.236364 37.236364 0 0 0-35.933091-47.290182L1117.090909 308.596364v558.545454h112.267636zM1024 866.955636v-558.545454h-46.545455v558.545454h46.545455z m-139.636364 0v-558.545454H837.818182v558.545454h46.545454zM243.805091-119.90109099999995h956.974545a37.236364 37.236364 0 0 1 34.629819 23.645091l116.922181 297.890909a37.236364 37.236364 0 0 1-34.629818 50.827636H124.090182a37.236364 37.236364 0 0 1-34.536727-51.2l119.714909-297.890909a37.236364 37.236364 0 0 1 34.443636-23.272727z"  horiz-adv-x="1489" />

    
    <glyph glyph-name="settings" unicode="&#58944;" d="M1011.808098 497.585231a46.473846 46.473846 0 0 1-36.548923 41.432615h-2.441846c-43.874462 9.767385-75.618462 34.185846-99.958154 75.618462-21.976615 36.548923-29.223385 82.865231-14.651077 124.297846 7.325538 17.092923 2.441846 39.069538-14.572307 53.641846A457.649231 457.649231 0 0 1 677.82656 892.612923c-17.092923 7.246769-36.627692 2.363077-53.641846-14.651077-26.781538-34.185846-68.292923-51.2-114.609231-51.2C468.142868 826.683077 429.152098 846.217846 394.966252 880.246154c-19.456 19.534769-38.990769 17.092923-53.563077 12.209231-63.409231-26.781538-117.051077-58.446769-163.367384-97.516308-17.092923-12.130462-24.418462-34.107077-17.092923-53.563077 12.209231-46.395077 7.325538-90.269538-14.651077-129.260308-19.456-34.107077-56.083692-60.967385-99.958154-73.176615-2.363077 0-2.363077 0-4.883692-2.363077-14.651077-7.404308-24.418462-19.534769-31.665231-36.627692v-2.363077A494.434462 494.434462 0 0 1 0.017329 397.548308c0-31.665231 2.441846-68.292923 9.767385-97.516308a46.473846 46.473846 0 0 1 36.548923-41.432615H48.854252c43.874462-9.767385 75.618462-34.185846 100.036923-75.618462 21.897846-36.548923 29.144615-82.865231 14.572308-124.297846-7.325538-17.092923-2.441846-39.069538 14.651077-53.641846 46.316308-43.874462 102.4-77.981538 168.172308-100.036923 2.441846 0 4.883692-2.363077 9.767384-2.363077h7.325539c12.209231 0 26.781538 4.883692 38.990769 17.014154 26.781538 31.744 68.292923 51.2 114.609231 51.2 41.432615 0 80.423385-19.456 114.609231-53.563077 9.688615-9.767385 21.897846-17.092923 34.107076-17.092923 4.883692 0 12.209231 0 17.092924 2.363077 63.330462 26.860308 116.972308 58.604308 163.288615 97.595076 17.092923 9.767385 24.418462 34.107077 17.092923 53.563077-12.209231 46.395077-7.325538 90.269538 14.651077 129.260308 19.456 34.185846 56.083692 60.967385 99.958154 73.176615 2.363077 0 2.363077 0 4.883692 2.363077 14.651077 7.404308 24.418462 19.534769 31.665231 36.627693v2.441846c7.325538 36.548923 9.767385 68.292923 9.767384 100.036923-2.441846 34.028308-4.883692 68.214154-12.20923 99.879385zM509.654252 229.37599999999998a169.590154 169.590154 0 0 0-170.692923 170.692923c0 95.074462 75.618462 170.692923 170.692923 170.692923 95.074462 0 170.692923-75.618462 170.692923-170.692923 0-95.074462-75.618462-170.692923-170.692923-170.692923z"  horiz-adv-x="1024" />

    
    <glyph glyph-name="icon_site_large" unicode="&#58946;" d="M512-34.909091a46.545455 46.545455 0 1 0 0-93.090909 46.545455 46.545455 0 0 0 0 93.090909z m0 930.909091c205.661091 0 372.363636-172.148364 372.363636-384.512C884.363636 369.92 760.250182 203.310545 512 11.636364 263.749818 203.310545 139.636364 369.92 139.636364 511.488 139.636364 723.851636 306.338909 896 512 896z"  horiz-adv-x="1024" />

    


  </font>
</defs>
</svg>
